<svg width="72" height="72" viewBox="0 0 72 72" fill="none" xmlns="http://www.w3.org/2000/svg">
<path d="M0 0H52C63.0457 0 72 8.95431 72 20V52C72 63.0457 63.0457 72 52 72H0V0Z" fill="#7C5DFA"/>
<mask id="mask0_0_1480" style="mask-type:luminance" maskUnits="userSpaceOnUse" x="0" y="0" width="72" height="72">
<path d="M0 0H52C63.0457 0 72 8.95431 72 20V52C72 63.0457 63.0457 72 52 72H0V0Z" fill="white"/>
</mask>
<g mask="url(#mask0_0_1480)">
<path d="M72 36.3496H20C8.95431 36.3496 0 45.3039 0 56.3496V88.3496C0 99.3953 8.95431 108.35 20 108.35H72V36.3496Z" fill="#9277FF"/>
</g>
</svg>
